<?xml version="1.0" standalone="no"?>
<!DOCTYPE svg PUBLIC "-//W3C//DTD SVG 20010904//EN"
 "http://www.w3.org/TR/2001/REC-SVG-20010904/DTD/svg10.dtd">
<svg version="1.0" xmlns="http://www.w3.org/2000/svg"
 width="198.000000pt" height="198.000000pt" viewBox="0 0 198.000000 198.000000"
 preserveAspectRatio="xMidYMid meet">
<metadata>
Created by potrace 1.11, written by Peter Selinger 2001-2013
</metadata>
<g transform="translate(0.000000,198.000000) scale(0.100000,-0.100000)"
fill="#000000" stroke="none">
<path d="M832 1829 c-97 -24 -138 -48 -205 -115 -101 -101 -132 -182 -131
-334 0 -83 4 -105 32 -173 38 -92 39 -103 11 -117 -31 -17 -87 -14 -159 9
-167 52 -241 30 -270 -79 -15 -54 6 -108 93 -240 115 -175 182 -284 180 -292
-2 -5 2 -8 8 -8 15 0 69 -59 69 -76 0 -16 79 -76 91 -69 4 3 10 1 14 -5 3 -5
15 -10 26 -10 10 0 19 -5 19 -11 0 -5 4 -8 9 -4 5 3 17 -2 25 -11 9 -9 23 -14
30 -11 7 3 17 2 22 -2 5 -4 29 -13 54 -20 25 -7 55 -17 68 -22 31 -12 102 -11
102 1 0 6 9 10 20 10 11 0 37 7 58 17 20 9 41 15 45 14 4 -1 18 4 30 11 12 7
25 11 29 10 4 -1 22 5 42 13 20 9 37 11 41 6 5 -9 93 -42 105 -40 3 0 30 -9
60 -21 33 -13 77 -22 110 -22 56 1 184 35 195 52 3 6 21 10 40 10 18 0 40 7
49 15 8 9 17 15 18 15 2 -1 15 3 30 9 47 18 96 117 77 154 -6 10 -8 25 -5 33
3 8 1 14 -4 14 -6 0 -10 7 -10 17 0 9 -14 34 -30 57 -17 23 -48 68 -69 101
-20 33 -60 93 -87 134 -27 41 -59 93 -72 115 -12 23 -33 51 -47 63 -14 12 -25
27 -25 33 0 5 -3 10 -8 10 -4 0 -24 14 -45 31 -36 30 -37 31 -21 60 18 35 37
127 37 179 1 48 -21 144 -33 148 -6 2 -10 13 -10 26 0 24 -45 96 -60 96 -6 0
-10 6 -10 13 0 15 -41 57 -56 57 -6 0 -21 11 -34 25 -108 115 -288 165 -448
124z"/>
</g>
</svg>
